<?xml version="1.0" encoding="iso-8859-1"?>


<svg xmlns="http://www.w3.org/2000/svg" width="500" height="342.964" viewBox="0 0 500 342.964">
    <defs>
        <style>
            .cls-1{fill:#d1e3ff}.cls-2{fill:#eef9ff}.cls-3{fill:#fff}.cls-4{fill:#f3f8ff}.cls-5{fill:#f0f6ff}.cls-6{fill:#bad0f1}.cls-7{fill:rgba(118,187,255,.36)}.cls-8{fill:#318fff}.cls-9{fill:#a8d0ff}.cls-10{fill:#51e9e0}.cls-11{fill:#5fb4af}.cls-11,.cls-12{opacity:.2}.cls-13{fill:#5ab0fd}.cls-14{fill:#9fc6ff}.cls-15{fill:#407bff}.cls-16{fill:none;stroke:#9fc6ff}.cls-17{fill:#68e2db}.cls-18{fill:#ff8b7b}.cls-19{fill:#0053cc}.cls-20{fill:#0f264c}.cls-21{fill:#ff5652}.cls-22{fill:#14365b}.cls-23{fill:#ea7063}.cls-24{fill:#b3caff}.cls-25{fill:#2483e2}.cls-26{fill:#4585ff}
        </style>
    </defs>
    <g id="Group_1356" data-name="Group 1356" transform="translate(-97 -249.953)">
        <g id="Background_2" data-name="Background 2" transform="translate(97 195)">
            <g id="Group_8" data-name="Group 8">
                <g id="Group_3" data-name="Group 3">
                    <g id="Group_2" data-name="Group 2">
                        <g id="Group_1" data-name="Group 1">
                            <path id="Rectangle_1" d="M0 0h500v.25H0z" class="cls-1" data-name="Rectangle 1" transform="translate(0 382.398)"/>
                            <path id="Rectangle_2" d="M0 0h10.611v.25H0z" class="cls-1" data-name="Rectangle 2" transform="translate(65.294 392.002)"/>
                            <path id="Rectangle_3" d="M0 0h43.152v.25H0z" class="cls-1" data-name="Rectangle 3" transform="translate(83.239 391.877)"/>
                            <path id="Rectangle_4" d="M0 0h34.15v.25H0z" class="cls-1" data-name="Rectangle 4" transform="translate(112.183 397.667)"/>
                            <path id="Rectangle_5" d="M0 0h76.106v.25H0z" class="cls-1" data-name="Rectangle 5" transform="translate(154.005 389.917)"/>
                            <path id="Rectangle_6" d="M0 0h53.944v.25H0z" class="cls-1" data-name="Rectangle 6" transform="translate(349.333 394.139)"/>
                            <path id="Rectangle_7" d="M0 0h7.616v.25H0z" class="cls-1" data-name="Rectangle 7" transform="translate(336.164 394.139)"/>
                            <path id="Rectangle_8" d="M0 0h52.889v.25H0z" class="cls-1" data-name="Rectangle 8" transform="translate(376.833 389.792)"/>
                            <path id="Path_1" d="M237.014 337.8H43.915a5.715 5.715 0 0 1-5.708-5.708V60.66a5.714 5.714 0 0 1 5.708-5.707h193.1a5.714 5.714 0 0 1 5.707 5.707v271.432a5.715 5.715 0 0 1-5.708 5.708zM43.915 55.2a5.463 5.463 0 0 0-5.458 5.457v271.435a5.464 5.464 0 0 0 5.458 5.458h193.1a5.464 5.464 0 0 0 5.457-5.458V60.66a5.464 5.464 0 0 0-5.457-5.457z" class="cls-1" data-name="Path 1"/>
                            <path id="Path_2" d="M453.31 337.8h-193.1a5.714 5.714 0 0 1-5.707-5.708V60.66a5.713 5.713 0 0 1 5.707-5.707h193.1a5.714 5.714 0 0 1 5.709 5.707v271.432a5.715 5.715 0 0 1-5.709 5.708zM260.212 55.2a5.463 5.463 0 0 0-5.457 5.457v271.435a5.463 5.463 0 0 0 5.457 5.458h193.1a5.464 5.464 0 0 0 5.459-5.458V60.66a5.464 5.464 0 0 0-5.461-5.46z" class="cls-1" data-name="Path 2"/>
                        </g>
                    </g>
                </g>
                <g id="Group_7" data-name="Group 7">
                    <g id="Group_4" data-name="Group 4">
                        <path id="Path_5" d="M310.71 329.5H204.23c-2.33-22.95-9.94-46.02-22.82-68.13h106.47c12.88 22.107 20.49 45.177 22.83 68.13z" class="cls-1" data-name="Path 5"/>
                        <rect id="Rectangle_9" width="349.062" height="222.976" class="cls-1" data-name="Rectangle 9" rx="10.196" transform="translate(73.606 96.171)"/>
                        <rect id="Rectangle_10" width="349.062" height="222.976" class="cls-2" data-name="Rectangle 10" rx="10.196" transform="translate(71.788 96.171)"/>
                        <path id="Rectangle_11" d="M0 0h349.062v176.444H0z" class="cls-3" data-name="Rectangle 11" transform="translate(71.788 107.889)"/>
                        <path id="Path_6" d="M294.3 373.982H172.747a8.416 8.416 0 0 0-8.416 8.416h138.38a8.416 8.416 0 0 0-8.411-8.416z" class="cls-2" data-name="Path 6"/>
                        <path id="Path_7" d="M323.25 373.982h-21.765a8.416 8.416 0 0 0-8.416 8.416h38.6a8.416 8.416 0 0 0-8.419-8.416z" class="cls-1" data-name="Path 7"/>
                    </g>
                    <g id="Group_5" data-name="Group 5">
                        <rect id="Rectangle_12" width="214.466" height="163.509" class="cls-1" data-name="Rectangle 12" rx="4.351" transform="rotate(180 202.702 118.162)"/>
                        <rect id="Rectangle_13" width="214.466" height="163.509" class="cls-4" data-name="Rectangle 13" rx="4.351" transform="rotate(180 202.124 118.162)"/>
                        <path id="Path_8" d="M404.247 84.065v147.907a4.365 4.365 0 0 1-4.351 4.352H194.133a4.366 4.366 0 0 1-4.352-4.352V84.065z" class="cls-4" data-name="Path 8"/>
                        <path id="Rectangle_14" d="M0 0h212.859v140.686H0z" class="cls-3" data-name="Rectangle 14" transform="translate(190.585 89.851)"/>
                        <path id="Path_9" d="M392.386 78.472a2.315 2.315 0 1 0 2.315-2.314 2.314 2.314 0 0 0-2.315 2.314z" class="cls-3" data-name="Path 9"/>
                        <path id="Path_10" d="M384.186 78.472a2.314 2.314 0 1 0 2.314-2.314 2.314 2.314 0 0 0-2.314 2.314z" class="cls-3" data-name="Path 10"/>
                        <path id="Path_11" d="M375.985 78.472a2.315 2.315 0 1 0 2.314-2.314 2.314 2.314 0 0 0-2.314 2.314z" class="cls-3" data-name="Path 11"/>
                        <path id="Rectangle_15" d="M0 0h214.466v.578H0z" class="cls-1" data-name="Rectangle 15" transform="rotate(180 202.124 42.177)"/>
                    </g>
                    <g id="Group_6" data-name="Group 6">
                        <rect id="Rectangle_16" width="214.466" height="163.509" class="cls-1" data-name="Rectangle 16" rx="4.351" transform="rotate(180 192.311 128.553)"/>
                        <rect id="Rectangle_17" width="214.466" height="163.509" class="cls-4" data-name="Rectangle 17" rx="4.351" transform="rotate(180 191.733 128.553)"/>
                        <path id="Path_12" d="M383.466 104.847v147.907a4.364 4.364 0 0 1-4.351 4.351H173.351a4.364 4.364 0 0 1-4.351-4.351V104.847z" class="cls-4" data-name="Path 12"/>
                        <path id="Rectangle_18" d="M0 0h212.859v140.686H0z" class="cls-3" data-name="Rectangle 18" transform="translate(169.804 110.633)"/>
                        <circle id="Ellipse_1" cx="2.314" cy="2.314" r="2.314" class="cls-3" data-name="Ellipse 1" transform="translate(371.605 96.939)"/>
                        <path id="Path_13" d="M363.4 99.254a2.314 2.314 0 1 0 2.315-2.315 2.314 2.314 0 0 0-2.315 2.315z" class="cls-3" data-name="Path 13"/>
                        <circle id="Ellipse_2" cx="2.314" cy="2.314" r="2.314" class="cls-3" data-name="Ellipse 2" transform="translate(355.204 96.939)"/>
                        <path id="Rectangle_19" d="M0 0h214.466v.579H0z" class="cls-1" data-name="Rectangle 19" transform="rotate(180 191.733 52.568)"/>
                    </g>
                    <path id="Path_14" d="M346.111 178.32c-7.768 0-11.535-7.916-15.177-15.571-3.531-7.42-6.866-14.429-13.372-14.429s-9.839 7.009-13.37 14.429c-3.642 7.655-7.409 15.571-15.177 15.571s-11.535-7.916-15.176-15.571c-3.53-7.42-6.864-14.429-13.368-14.429s-9.84 7.009-13.37 14.429c-3.642 7.655-7.408 15.571-15.176 15.571s-11.533-7.916-15.175-15.571c-3.53-7.42-6.864-14.429-13.369-14.429s-9.839 7.009-13.369 14.429c-3.641 7.655-7.407 15.571-15.174 15.571s-11.532-7.916-15.173-15.571c-3.53-7.42-6.864-14.429-13.367-14.429s-9.837 7.009-13.367 14.429c-3.641 7.655-7.406 15.571-15.172 15.571s-11.531-7.916-15.172-15.571c-3.529-7.42-6.862-14.429-13.365-14.429v-2c7.766 0 11.53 7.915 15.171 15.57 3.529 7.42 6.863 14.43 13.366 14.43s9.837-7.009 13.366-14.43c3.641-7.655 7.406-15.57 15.173-15.57s11.532 7.915 15.173 15.57c3.529 7.421 6.863 14.43 13.367 14.43s9.838-7.009 13.368-14.429c3.642-7.656 7.408-15.571 15.175-15.571s11.534 7.915 15.175 15.57c3.53 7.42 6.865 14.43 13.369 14.43s9.839-7.009 13.37-14.429c3.641-7.656 7.407-15.571 15.176-15.571s11.533 7.915 15.174 15.57c3.531 7.42 6.865 14.43 13.37 14.43s9.84-7.01 13.371-14.43c3.642-7.655 7.408-15.57 15.176-15.57s11.536 7.915 15.178 15.57c3.53 7.42 6.865 14.43 13.371 14.43z" class="cls-4" data-name="Path 14"/>
                    <path id="Path_15" d="M346.111 224.333c-7.768 0-11.535-7.915-15.177-15.57-3.531-7.42-6.866-14.43-13.372-14.43s-9.839 7.009-13.37 14.43c-3.642 7.655-7.409 15.57-15.177 15.57s-11.535-7.915-15.176-15.57c-3.53-7.421-6.864-14.43-13.368-14.43s-9.84 7.01-13.37 14.43c-3.642 7.655-7.408 15.57-15.176 15.57s-11.533-7.915-15.175-15.57c-3.53-7.42-6.864-14.43-13.369-14.43s-9.839 7.01-13.369 14.43c-3.641 7.655-7.407 15.57-15.174 15.57s-11.532-7.915-15.173-15.57c-3.53-7.421-6.864-14.43-13.367-14.43s-9.837 7.009-13.367 14.43c-3.641 7.655-7.406 15.57-15.172 15.57s-11.531-7.915-15.172-15.57c-3.529-7.421-6.862-14.43-13.365-14.43v-2c7.766 0 11.53 7.916 15.171 15.571 3.529 7.42 6.863 14.429 13.366 14.429s9.837-7.008 13.366-14.429c3.641-7.655 7.406-15.571 15.173-15.571s11.532 7.916 15.173 15.571c3.529 7.421 6.863 14.429 13.367 14.429s9.838-7.008 13.368-14.429c3.642-7.655 7.408-15.571 15.175-15.571s11.534 7.916 15.175 15.571c3.53 7.42 6.865 14.429 13.369 14.429s9.839-7.008 13.37-14.429c3.641-7.655 7.407-15.571 15.176-15.571S272 200.249 275.645 207.9c3.531 7.421 6.865 14.43 13.37 14.43s9.84-7.009 13.371-14.43c3.642-7.654 7.408-15.57 15.176-15.57s11.538 7.919 15.178 15.57c3.53 7.42 6.865 14.429 13.371 14.429z" class="cls-4" data-name="Path 15"/>
                </g>
            </g>
        </g>
        <g id="Objects" transform="translate(83.889 165)">
            <g id="Group_14" data-name="Group 14">
                <ellipse id="Ellipse_3" cx="193.889" cy="11.323" class="cls-5" data-name="Ellipse 3" rx="193.889" ry="11.323" transform="translate(56.111 404.915)"/>
                <g id="Group_11" data-name="Group 11">
                    <path id="Path_17" d="M161.681 109.944h-53.3a9.363 9.363 0 0 0-8.708 5.924l-4.747 12.02h80.211l-4.747-12.02a9.363 9.363 0 0 0-8.709-5.924z" class="cls-6" data-name="Path 17"/>
                    <path id="Path_18" d="M313.014 109.944h-53.3a9.363 9.363 0 0 0-8.709 5.924l-4.747 12.02h80.211l-4.747-12.02a9.363 9.363 0 0 0-8.708-5.924z" class="cls-7" data-name="Path 18"/>
                    <path id="Rectangle_20" d="M0 0h1v19.365H0z" class="cls-8" data-name="Rectangle 20" transform="translate(78.833 194.72)"/>
                    <path id="Rectangle_21" d="M0 0h1v7.111H0z" class="cls-8" data-name="Rectangle 21" transform="translate(78.833 221.444)"/>
                    <path id="Path_19" d="M406.731 126.555H250.276l-4.221-10.687a9.361 9.361 0 0 0-8.708-5.924h-53.3a9.362 9.362 0 0 0-8.708 5.924l-4.221 10.687H93.269a10.968 10.968 0 0 0-10.936 10.935v208.721a10.968 10.968 0 0 0 10.936 10.935h313.462a10.968 10.968 0 0 0 10.936-10.935V137.49a10.968 10.968 0 0 0-10.936-10.935z" class="cls-9" data-name="Path 19"/>
                    <g id="Group_10" data-name="Group 10">
                        <rect id="Rectangle_22" width="195.796" height="321.334" class="cls-3" data-name="Rectangle 22" rx="3.731" transform="rotate(90 128.158 282.509)"/>
                        <g id="Group_25" data-name="Group 25" transform="rotate(2 -5794.793 3103.565)">
                            <path id="Path_101" d="M202.942 218.22h-31.383a2.512 2.512 0 0 1-2.47-2.34l-1.2-21.586a2.2 2.2 0 0 1 2.209-2.34h31.383a2.512 2.512 0 0 1 2.47 2.34l1.2 21.586a2.2 2.2 0 0 1-2.209 2.34z" class="cls-10" data-name="Path 101" transform="translate(-167.883 -170.934)"/>
                            <path id="Path_102" d="M170.1 191.954a2.2 2.2 0 0 0-2.209 2.34l1.2 21.586a2.512 2.512 0 0 0 2.47 2.34h15.689l-1.463-26.266z" class="cls-11" data-name="Path 102" transform="translate(-167.883 -170.934)"/>
                            <path id="Path_103" d="M201.688 219.486l.359-6.858a4.066 4.066 0 0 1-1.9-3.193 3.581 3.581 0 0 1 3.61-3.823 4.1 4.1 0 0 1 4.036 3.823 3.575 3.575 0 0 1-1.547 3.193l1.123 6.859z" class="cls-12" data-name="Path 103" transform="translate(-185.506 -178.396)"/>
                            <path id="Path_104" d="M207.914 210.149a3.457 3.457 0 0 0-3.41-3.23 3.022 3.022 0 0 0-3.049 3.23 3.457 3.457 0 0 0 1.922 2.875l-.345 6.583h4.359l-1.078-6.583a3.023 3.023 0 0 0 1.601-2.875z" class="cls-3" data-name="Path 104" transform="translate(-186.222 -179.11)"/>
                            <path id="Path_105" d="M203.772 165.089h-4.152l-.25-4.5a11.588 11.588 0 0 0-11.416-10.814 10.13 10.13 0 0 0-10.212 10.814l.25 4.5h-4.152l-.25-4.5a14.02 14.02 0 0 1 14.133-14.966 16.037 16.037 0 0 1 15.8 14.966z" class="cls-13" data-name="Path 105" transform="translate(-170.987 -145.62)"/>
                        </g>
                        <path id="Path_20" d="M334.211 259.1H167.5v-22.78h166.711zm-165.7-.75H333.2v-21.282H168.51z" class="cls-14" data-name="Path 20" transform="translate(0 -2.413)"/>
                        <path id="Rectangle_25" d="M0 0h85.556v18.802H0z" class="cls-15" data-name="Rectangle 25" transform="translate(207.222 276.35)"/>
                        <path id="Rectangle_26" d="M0 0h17.045v3.802H0z" class="cls-14" data-name="Rectangle 26" transform="translate(117.985 160.861)"/>
                        <path id="Rectangle_27" d="M0 0h17.045v3.802H0z" class="cls-14" data-name="Rectangle 27" transform="translate(96.207 160.861)"/>
                        <path id="Rectangle_28" d="M0 0h166.667v22.913H0z" class="cls-16" data-name="Rectangle 28" transform="translate(167.544 197.128)"/>
                        <circle id="Ellipse_29" cx="5" cy="5" r="5" class="cls-17" data-name="Ellipse 29" transform="translate(180 240)"/>
                        <circle id="Ellipse_30" cx="5" cy="5" r="5" class="cls-17" data-name="Ellipse 30" transform="translate(196 240)"/>
                        <circle id="Ellipse_31" cx="5" cy="5" r="5" class="cls-17" data-name="Ellipse 31" transform="translate(212 240)"/>
                        <circle id="Ellipse_32" cx="5" cy="5" r="5" class="cls-17" data-name="Ellipse 32" transform="translate(228 240)"/>
                        <circle id="Ellipse_33" cx="5" cy="5" r="5" class="cls-17" data-name="Ellipse 33" transform="translate(244 240)"/>
                        <circle id="Ellipse_34" cx="5" cy="5" r="5" class="cls-17" data-name="Ellipse 34" transform="translate(260 240)"/>
                    </g>
                </g>
                <g id="Group_13" data-name="Group 13">
                    <path id="Path_23" d="M385.974 178.073c.517 1.985 1.087 4.2 1.706 6.295q.878 3.2 1.864 6.387c.667 2.118 1.3 4.252 2.007 6.366l1.04 3.178.263.793.1.281a1.042 1.042 0 0 0 .064.171 4.235 4.235 0 0 0 .455.8 15.28 15.28 0 0 0 4.049 3.6 48.28 48.28 0 0 0 5.511 3.118 123.823 123.823 0 0 0 12.182 5.068l-.975 4.129a75.28 75.28 0 0 1-13.64-3.382 48.037 48.037 0 0 1-6.672-2.9 21.908 21.908 0 0 1-6.424-4.959 12.168 12.168 0 0 1-1.373-2.053c-.1-.192-.2-.391-.291-.6l-.219-.509-.336-.8c-.449-1.062-.9-2.125-1.317-3.2-.842-2.147-1.683-4.3-2.421-6.489s-1.481-4.381-2.155-6.6l-.933-3.364a60.686 60.686 0 0 1-.842-3.484z" class="cls-18" data-name="Path 23"/>
                    <path id="Path_24" d="M413.854 213.833l5.9.938-3.8 5.224s-5.785-2.091-5.549-5.565z" class="cls-18" data-name="Path 24"/>
                    <path id="Path_25" d="M420.271 220.292l-2.6 5.3-1.714-5.592 3.8-5.224z" class="cls-18" data-name="Path 25"/>
                    <path id="Path_26" d="M365.935 408.179a2.406 2.406 0 0 1-1.6-.437 1.128 1.128 0 0 1-.328-1.053.675.675 0 0 1 .394-.558c.974-.438 3.518 1.2 3.806 1.389a.2.2 0 0 1-.064.359 10.16 10.16 0 0 1-2.208.3zm-1.115-1.732a.617.617 0 0 0-.252.045.283.283 0 0 0-.166.251.745.745 0 0 0 .2.7c.425.388 1.523.438 2.98.148a7.374 7.374 0 0 0-2.762-1.144z" class="cls-19" data-name="Path 26"/>
                    <path id="Path_27" d="M368.1 407.884a.2.2 0 0 1-.1-.026c-.8-.454-2.321-2.26-2.133-3.2a.691.691 0 0 1 .667-.553 1.019 1.019 0 0 1 .84.264c.911.807.922 3.219.922 3.321a.2.2 0 0 1-.1.172.194.194 0 0 1-.096.022zm-1.425-3.4a.681.681 0 0 0-.09.006c-.254.03-.308.143-.327.237-.115.575.835 1.933 1.631 2.569a4.538 4.538 0 0 0-.776-2.638.639.639 0 0 0-.437-.17z" class="cls-19" data-name="Path 27"/>
                    <path id="Path_28" d="M313.793 404.476a.177.177 0 0 1-.039 0c-1.354-.27-3.7-.888-4.228-1.989a1.1 1.1 0 0 1 .039-1.029.638.638 0 0 1 .514-.358c1.145-.136 3.593 2.728 3.866 3.054a.2.2 0 0 1-.152.326zm-3.626-2.989a.347.347 0 0 0-.046 0 .247.247 0 0 0-.2.148.71.71 0 0 0-.032.675c.294.617 1.537 1.218 3.369 1.645-.995-1.104-2.434-2.468-3.091-2.468z" class="cls-19" data-name="Path 28"/>
                    <path id="Path_29" d="M313.793 404.476a.2.2 0 0 1-.145-.063c-.749-.8-1.879-3.224-1.374-4.041.121-.194.373-.39.9-.232a1.437 1.437 0 0 1 .883.738c.636 1.213-.049 3.369-.08 3.461a.2.2 0 0 1-.145.132.154.154 0 0 1-.039.005zm-.966-4a.219.219 0 0 0-.215.1c-.3.49.389 2.316 1.092 3.275a4.589 4.589 0 0 0 .005-2.795 1.034 1.034 0 0 0-.646-.54.793.793 0 0 0-.236-.037z" class="cls-19" data-name="Path 29"/>
                    <path id="Path_30" d="M367.364 148.067c-.974 4.97-3.027 15.037.45 18.354 0 0-1.359 5.042-10.594 5.042-10.156 0-4.853-5.042-4.853-5.042 5.542-1.323 5.4-5.436 4.434-9.3z" class="cls-18" data-name="Path 30"/>
                    <path id="Path_31" d="M351.791 168.046c-1.376.2-.1-2.922.468-3.259 1.312-.78 17.981-2.344 17.81-.583a4.669 4.669 0 0 1-1.3 2.771c-.747.525-4.969-.859-16.978 1.071z" class="cls-14" data-name="Path 31"/>
                    <path id="Path_32" d="M347.189 137.413a.394.394 0 0 1-.321-.164 3.143 3.143 0 0 0-2.516-1.378.4.4 0 0 1-.037-.793 3.957 3.957 0 0 1 3.2 1.705.4.4 0 0 1-.322.63z" class="cls-20" data-name="Path 32"/>
                    <path id="Path_33" d="M344.967 142.184a18.044 18.044 0 0 1-2.237 4.4 2.9 2.9 0 0 0 2.424.357z" class="cls-21" data-name="Path 33"/>
                    <path id="Path_34" d="M345.526 141c.026.675-.31 1.237-.751 1.254s-.821-.516-.847-1.191.31-1.236.751-1.254.821.516.847 1.191z" class="cls-20" data-name="Path 34"/>
                    <path id="Path_35" d="M344.875 139.839l-1.64-.4s.882 1.23 1.64.4z" class="cls-20" data-name="Path 35"/>
                    <path id="Path_36" d="M322.667 407.625l-8.161-1.888 3.826-19.025 8.161 1.888z" class="cls-18" data-name="Path 36"/>
                    <path id="Path_37" d="M377.842 407.685h-8.376l.657-19.4h8.377z" class="cls-18" data-name="Path 37"/>
                    <path id="Path_38" d="M368.8 406.716h9.41a.662.662 0 0 1 .669.572l1.072 7.445a1.347 1.347 0 0 1-1.343 1.49c-3.281-.057-4.862-.249-9-.249-2.546 0-6.266.264-9.782.264-3.438 0-3.7-3.476-2.239-3.791 6.564-1.412 7.6-3.359 9.813-5.217a2.191 2.191 0 0 1 1.4-.514z" class="cls-22" data-name="Path 38"/>
                    <path id="Path_39" d="M314.671 403.592l8.691 3.607a.663.663 0 0 1 .4.785l-1.863 7.287a1.346 1.346 0 0 1-1.812.861c-3.008-1.309-4.395-2.093-8.217-3.68-2.352-.976-7.317-2.75-10.564-4.1-3.176-1.318-2.088-4.63-.615-4.36 6.6 1.213 9.737.4 12.491-.463a2.185 2.185 0 0 1 1.489.063z" class="cls-22" data-name="Path 39"/>
                    <g id="Group_12" data-name="Group 12">
                        <path id="Path_40" d="M318.333 386.718l-2.051 10.192 8.242 1.5 1.974-9.806z" class="cls-23" data-name="Path 40"/>
                        <path id="Path_41" d="M378.5 388.293h-8.38l-.335 10h8.38z" class="cls-23" data-name="Path 41"/>
                    </g>
                    <path id="Path_42" d="M341.536 179.98a148.713 148.713 0 0 1-6.663 14.478c-1.236 2.366-2.529 4.707-3.991 7.01-.347.579-.737 1.152-1.114 1.726s-.76 1.144-1.183 1.71-.8 1.133-1.274 1.695l-.683.842-.343.42a4.528 4.528 0 0 1-.221.256l-.273.3a12.092 12.092 0 0 1-4.727 2.919 22.489 22.489 0 0 1-4.523 1.042 42.82 42.82 0 0 1-8.416.141 80.732 80.732 0 0 1-15.82-2.869l.856-4.154c2.483.232 5.059.442 7.579.539 2.526.132 5.046.172 7.515.067a41.906 41.906 0 0 0 7.107-.777 15.163 15.163 0 0 0 2.995-.932 4.85 4.85 0 0 0 1.787-1.225l.887-1.244c.341-.449.648-.991.973-1.484.641-1 1.261-2.07 1.866-3.14 1.212-2.148 2.338-4.4 3.464-6.659s2.161-4.58 3.206-6.9c1.056-2.3 2.069-4.681 3.05-6.954z" class="cls-18" data-name="Path 42"/>
                    <path id="Path_43" d="M338.208 168.567c-4.163 1.015-9.287 12.445-9.287 12.445l9.911 12.7s10.235-14.483 8.868-18.909c-1.425-4.614-4.442-7.468-9.492-6.236z" class="cls-8" data-name="Path 43"/>
                    <path id="Path_44" d="M293.611 209.991l-8.555-1.468 3.565-6.258s5.936 1.6 7.3 4.8z" class="cls-18" data-name="Path 44"/>
                    <path id="Path_45" d="M279.424 206.5l2.227-3.753 6.97-.477-3.565 6.258z" class="cls-18" data-name="Path 45"/>
                    <path id="Path_46" d="M368.134 137.792c-.184 8.311-.084 11.833-4.105 16.253-6.048 6.648-16.216 4.6-18.519-3.594-2.073-7.379-1.424-19.731 6.562-23.349a11.339 11.339 0 0 1 16.062 10.69z" class="cls-18" data-name="Path 46"/>
                    <path id="Path_47" d="M378.128 137.644c-.747-5.97-3.676-11.9-6.94-14.8-7.882-7.008-18.467-1.4-23.679 2.878-5.464 4.484-1.706 11.581 1.635 15.144a17.306 17.306 0 0 0 .58 3.771c-.521 3.284-2.715 6.53-5.778 9.151 10.391 3.041 25.6 3.25 31.223 1.159 7.261-2.699 4.331-4.822 2.959-17.303z" class="cls-20" data-name="Path 47"/>
                    <path id="Path_48" d="M352.192 141.64a6.923 6.923 0 0 1-1.9 4.172c-1.475 1.532-3.009.645-3.266-1.165-.232-1.63.255-4.39 2.056-5.262 1.771-.858 3.233.409 3.11 2.255z" class="cls-18" data-name="Path 48"/>
                    <path id="Path_49" d="M342.21 219.122s-9.439 64.5-12.756 89.835c-3.45 26.35-13.535 85.429-13.535 85.429l11.2 1.711s17.7-56.344 22.635-81.986c5.377-27.956 17.372-94.989 17.372-94.989z" class="cls-24" data-name="Path 49"/>
                    <path id="Path_50" d="M314.268 394.433l14.343 2.437 1.628-5.413-15.349-2.624z" class="cls-8" data-name="Path 50"/>
                    <path id="Path_51" d="M351.194 219.122s4.861 57.491 9.9 89.891c4.074 26.171 7.287 87.342 7.287 87.342h11.422s5.443-59.077 3.375-84.961c-5.233-65.5 3.944-77.089-6.953-92.272z" class="cls-24" data-name="Path 51"/>
                    <path id="Path_52" d="M366.823 396.582h14.548l.764-5.1-15.4-.521z" class="cls-8" data-name="Path 52"/>
                    <path id="Path_53" d="M389.46 181.607l-8.41 6.7-5.05 4.03s-.53-1.41-1.17-3.43c-1.22-3.9-2.81-10.08-1.71-12.92 1.73-4.5 5.03-8.56 9.14-7.66 3.48.76 7.2 13.28 7.2 13.28z" class="cls-8" data-name="Path 53"/>
                    <path id="Path_54" d="M381.05 188.307l-5.05 4.03s-.53-1.41-1.17-3.43l3-14.85z" class="cls-25" data-name="Path 54"/>
                    <path id="Path_55" d="M338.208 168.567s-3.991 1.4 4 50.555h34.02c-.571-13.846-.587-22.383 6.03-50.8a100.31 100.31 0 0 0-14.446-1.9 108.228 108.228 0 0 0-15.447 0c-6.633.605-14.157 2.145-14.157 2.145z" class="cls-26" data-name="Path 55"/>
                    <path id="Path_56" d="M376.739 217.125l1.534 3.046c.119.236-.161.477-.554.477h-35.677c-.306 0-.56-.151-.58-.343l-.307-3.045c-.021-.212.245-.39.581-.39h34.449a.617.617 0 0 1 .554.255z" class="cls-14" data-name="Path 56"/>
                    <path id="Path_57" d="M372.112 220.977h.923c.184 0 .324-.094.311-.21l-.433-3.956c-.012-.116-.173-.211-.357-.211h-.922c-.184 0-.324.1-.311.211l.432 3.956c.013.116.174.21.357.21z" class="cls-20" data-name="Path 57"/>
                    <path id="Path_58" d="M349.749 220.977h.922c.184 0 .324-.094.311-.21l-.432-3.956c-.013-.116-.174-.211-.357-.211h-.923c-.184 0-.324.1-.311.211l.433 3.956c.008.116.173.21.357.21z" class="cls-20" data-name="Path 58"/>
                </g>
            </g>
        </g>
    </g>
</svg>