<?xml version="1.0" encoding="iso-8859-1"?>
<svg height="426" viewBox="0 0 487 426" width="487" xmlns="http://www.w3.org/2000/svg" xmlns:xlink="http://www.w3.org/1999/xlink"><defs><path id="a" d="m.61670427 0h306.99999973l6.5 389.796196-302.3671872 3.203804z"/><path id="b" d="m91 0c1.6568542 0 3 1.34314575 3 3v17c0 1.6568542-1.3431458 3-3 3l-14-.001.0017468 6.2434091c14.1062663 1.4874823 25.5776602 4.2639598 28.9702052 8.0757874 6.704064 7.5326135 6.704064 21.7598813 0 42.6818035l-99.20610134-.3890619c-8.24487059-19.1945508-8.95433716-33.2921314-2.1283997-42.2927416 3.47616176-4.5836309 15.11306704-7.357285 29.36233234-8.5794721l.0002167-5.7397244-15 .001c-1.6568542 0-3-1.3431458-3-3v-17c0-1.65685425 1.3431458-3 3-3z"/><mask id="c" fill="#fff"><use fill="#fff" fill-rule="evenodd" xlink:href="#a"/></mask><mask id="d" fill="#fff"><use fill="#fff" fill-rule="evenodd" xlink:href="#b"/></mask></defs><g fill="none" fill-rule="evenodd" transform="translate(1)"><path d="m194.814989 423c-19.399732-13.634813-29.386413-35.193105-24.84015-63.377984 11.886718-73.692565-14.220237-66.035669-36.526197-68.740376-112.4884731-13.639777-117.2677274-138.560929-52.3562263-200.5772784 47.3490743-45.237233 128.8577613-116.9574169 183.8948373-80.1497619 67.228605 44.9610971 40.299609 96.6136563 65.49412 135.6938923 25.194512 39.080236 83.656355 33.511447 105.671186 93.941925 22.01483 60.430479 0 141.736941-95.3005 181.826488" fill="#4876fe"/><path d="m141.52534 3 303.47466 48.0138893-52.915 373.9861107h-82.668l-218.417-32.190222z" fill="#353f84"/><g transform="translate(74 33)"><use fill="#fff" xlink:href="#a"/><path d="m76.8008349 418.108028 253.2987251-450.9253705.517144 450.9253705-336.616704 5.9788z" fill="#f6f9ff" mask="url(#c)"/><path d="m212.664454 313.147797c5.342597 3.009516 12.338399 5.783889 20.987407 8.32312 7.685546-9.176688 16.07552-15.006736 25.169921-17.490144s34.690105-12.088652 76.78711-28.815734l-1.670899-38.255859-96.347656 53.621214c-21.959852 12.068753-30.26848 19.607888-24.925883 22.617403z" fill="#c4d3f8" mask="url(#c)"/><g fill="#fff" fill-rule="nonzero"><g mask="url(#c)"><g transform="matrix(.96592583 .25881905 -.25881905 .96592583 251.374596 309.094189)"><circle cx="47.840426" cy="1.5" r="1.5"/><circle cx="55.840426" cy="1.5" r="1.5"/><circle cx="62.840426" cy="1.5" r="1.5"/><circle cx="70.840426" cy="1.5" r="1.5"/><circle cx="78.840426" cy="1.5" r="1.5"/><circle cx="85.840426" cy="1.5" r="1.5"/><circle cx="47.840426" cy="9.5" r="1.5"/><circle cx="55.840426" cy="9.5" r="1.5"/><circle cx="62.840426" cy="9.5" r="1.5"/><circle cx="70.840426" cy="9.5" r="1.5"/><circle cx="78.840426" cy="9.5" r="1.5"/><circle cx="85.840426" cy="9.5" r="1.5"/><circle cx="47.840426" cy="17.5" r="1.5"/><circle cx="55.840426" cy="17.5" r="1.5"/><circle cx="62.840426" cy="17.5" r="1.5"/><circle cx="70.840426" cy="17.5" r="1.5"/><circle cx="78.840426" cy="17.5" r="1.5"/><circle cx="85.840426" cy="17.5" r="1.5"/><circle cx="47.840426" cy="25.5" r="1.5"/><circle cx="55.840426" cy="25.5" r="1.5"/><circle cx="62.840426" cy="25.5" r="1.5"/><circle cx="70.840426" cy="25.5" r="1.5"/><circle cx="78.840426" cy="25.5" r="1.5"/><circle cx="85.840426" cy="25.5" r="1.5"/><circle cx="47.840426" cy="32.5" r="1.5"/><circle cx="55.840426" cy="32.5" r="1.5"/><circle cx="62.840426" cy="32.5" r="1.5"/><circle cx="70.840426" cy="32.5" r="1.5"/><circle cx="78.840426" cy="32.5" r="1.5"/><circle cx="85.840426" cy="32.5" r="1.5"/><circle cx="47.840426" cy="40.5" r="1.5"/><circle cx="55.840426" cy="40.5" r="1.5"/><circle cx="62.840426" cy="40.5" r="1.5"/><circle cx="70.840426" cy="40.5" r="1.5"/><circle cx="78.840426" cy="40.5" r="1.5"/><circle cx="85.840426" cy="40.5" r="1.5"/><circle cx="1.840426" cy="1.5" r="1.5"/><circle cx="8.840426" cy="1.5" r="1.5"/><circle cx="16.840426" cy="1.5" r="1.5"/><circle cx="24.840426" cy="1.5" r="1.5"/><circle cx="31.840426" cy="1.5" r="1.5"/><circle cx="39.840426" cy="1.5" r="1.5"/><circle cx="1.840426" cy="9.5" r="1.5"/><circle cx="8.840426" cy="9.5" r="1.5"/><circle cx="16.840426" cy="9.5" r="1.5"/><circle cx="24.840426" cy="9.5" r="1.5"/><circle cx="31.840426" cy="9.5" r="1.5"/><circle cx="39.840426" cy="9.5" r="1.5"/><circle cx="1.840426" cy="17.5" r="1.5"/><circle cx="8.840426" cy="17.5" r="1.5"/><circle cx="16.840426" cy="17.5" r="1.5"/><circle cx="24.840426" cy="17.5" r="1.5"/><circle cx="31.840426" cy="17.5" r="1.5"/><circle cx="39.840426" cy="17.5" r="1.5"/><circle cx="1.840426" cy="25.5" r="1.5"/><circle cx="8.840426" cy="25.5" r="1.5"/><circle cx="16.840426" cy="25.5" r="1.5"/><circle cx="24.840426" cy="25.5" r="1.5"/><circle cx="31.840426" cy="25.5" r="1.5"/><circle cx="39.840426" cy="25.5" r="1.5"/><circle cx="1.840426" cy="32.5" r="1.5"/><circle cx="8.840426" cy="32.5" r="1.5"/><circle cx="16.840426" cy="32.5" r="1.5"/><circle cx="24.840426" cy="32.5" r="1.5"/><circle cx="31.840426" cy="32.5" r="1.5"/><circle cx="39.840426" cy="32.5" r="1.5"/><circle cx="1.840426" cy="40.5" r="1.5"/><circle cx="8.840426" cy="40.5" r="1.5"/><circle cx="16.840426" cy="40.5" r="1.5"/><circle cx="24.840426" cy="40.5" r="1.5"/><circle cx="31.840426" cy="40.5" r="1.5"/><circle cx="39.840426" cy="40.5" r="1.5"/><circle cx="47.840426" cy="47.5" r="1.5"/><circle cx="55.840426" cy="47.5" r="1.5"/><circle cx="62.840426" cy="47.5" r="1.5"/><circle cx="70.840426" cy="47.5" r="1.5"/><circle cx="78.840426" cy="47.5" r="1.5"/><circle cx="85.840426" cy="47.5" r="1.5"/><circle cx="47.840426" cy="55.5" r="1.5"/><circle cx="55.840426" cy="55.5" r="1.5"/><circle cx="62.840426" cy="55.5" r="1.5"/><circle cx="70.840426" cy="55.5" r="1.5"/><circle cx="78.840426" cy="55.5" r="1.5"/><circle cx="85.840426" cy="55.5" r="1.5"/><circle cx="47.840426" cy="62.5" r="1.5"/><circle cx="55.840426" cy="62.5" r="1.5"/><circle cx="62.840426" cy="62.5" r="1.5"/><circle cx="70.840426" cy="62.5" r="1.5"/><circle cx="78.840426" cy="62.5" r="1.5"/><circle cx="85.840426" cy="62.5" r="1.5"/><circle cx="47.840426" cy="70.5" r="1.5"/><circle cx="55.840426" cy="70.5" r="1.5"/><circle cx="62.840426" cy="70.5" r="1.5"/><circle cx="1.840426" cy="47.5" r="1.5"/><circle cx="8.840426" cy="47.5" r="1.5"/><circle cx="16.840426" cy="47.5" r="1.5"/><circle cx="24.840426" cy="47.5" r="1.5"/><circle cx="31.840426" cy="47.5" r="1.5"/><circle cx="39.840426" cy="47.5" r="1.5"/><circle cx="1.840426" cy="55.5" r="1.5"/><circle cx="8.840426" cy="55.5" r="1.5"/><circle cx="16.840426" cy="55.5" r="1.5"/><circle cx="24.840426" cy="55.5" r="1.5"/><circle cx="31.840426" cy="55.5" r="1.5"/><circle cx="39.840426" cy="55.5" r="1.5"/><circle cx="1.840426" cy="62.5" r="1.5"/><circle cx="8.840426" cy="62.5" r="1.5"/><circle cx="16.840426" cy="62.5" r="1.5"/><circle cx="24.840426" cy="62.5" r="1.5"/><circle cx="31.840426" cy="62.5" r="1.5"/><circle cx="39.840426" cy="62.5" r="1.5"/><circle cx="1.840426" cy="70.5" r="1.5"/><circle cx="8.840426" cy="70.5" r="1.5"/><circle cx="16.840426" cy="70.5" r="1.5"/><circle cx="24.840426" cy="70.5" r="1.5"/><circle cx="31.840426" cy="70.5" r="1.5"/><circle cx="39.840426" cy="70.5" r="1.5"/><circle cx="1.840426" cy="78.5" r="1.5"/><circle cx="8.840426" cy="78.5" r="1.5"/><circle cx="16.840426" cy="78.5" r="1.5"/><circle cx="24.840426" cy="78.5" r="1.5"/><circle cx="31.840426" cy="78.5" r="1.5"/><circle cx="1.840426" cy="85.5" r="1.5"/><circle cx="8.840426" cy="85.5" r="1.5"/></g></g><g mask="url(#c)" opacity=".655552"><g transform="matrix(.96592583 .25881905 -.25881905 .96592583 166.374596 143.094189)"><circle cx="47.840426" cy="1.5" r="1.5"/><circle cx="55.840426" cy="1.5" r="1.5"/><circle cx="62.840426" cy="1.5" r="1.5"/><circle cx="70.840426" cy="1.5" r="1.5"/><circle cx="78.840426" cy="1.5" r="1.5"/><circle cx="85.840426" cy="1.5" r="1.5"/><circle cx="47.840426" cy="9.5" r="1.5"/><circle cx="55.840426" cy="9.5" r="1.5"/><circle cx="62.840426" cy="9.5" r="1.5"/><circle cx="70.840426" cy="9.5" r="1.5"/><circle cx="78.840426" cy="9.5" r="1.5"/><circle cx="85.840426" cy="9.5" r="1.5"/><circle cx="47.840426" cy="17.5" r="1.5"/><circle cx="55.840426" cy="17.5" r="1.5"/><circle cx="62.840426" cy="17.5" r="1.5"/><circle cx="70.840426" cy="17.5" r="1.5"/><circle cx="78.840426" cy="17.5" r="1.5"/><circle cx="85.840426" cy="17.5" r="1.5"/><circle cx="47.840426" cy="25.5" r="1.5"/><circle cx="55.840426" cy="25.5" r="1.5"/><circle cx="62.840426" cy="25.5" r="1.5"/><circle cx="70.840426" cy="25.5" r="1.5"/><circle cx="78.840426" cy="25.5" r="1.5"/><circle cx="85.840426" cy="25.5" r="1.5"/><circle cx="47.840426" cy="32.5" r="1.5"/><circle cx="55.840426" cy="32.5" r="1.5"/><circle cx="62.840426" cy="32.5" r="1.5"/><circle cx="70.840426" cy="32.5" r="1.5"/><circle cx="78.840426" cy="32.5" r="1.5"/><circle cx="85.840426" cy="32.5" r="1.5"/><circle cx="47.840426" cy="40.5" r="1.5"/><circle cx="55.840426" cy="40.5" r="1.5"/><circle cx="62.840426" cy="40.5" r="1.5"/><circle cx="70.840426" cy="40.5" r="1.5"/><circle cx="78.840426" cy="40.5" r="1.5"/><circle cx="85.840426" cy="40.5" r="1.5"/><circle cx="1.840426" cy="1.5" r="1.5"/><circle cx="8.840426" cy="1.5" r="1.5"/><circle cx="16.840426" cy="1.5" r="1.5"/><circle cx="24.840426" cy="1.5" r="1.5"/><circle cx="31.840426" cy="1.5" r="1.5"/><circle cx="39.840426" cy="1.5" r="1.5"/><circle cx="1.840426" cy="9.5" r="1.5"/><circle cx="8.840426" cy="9.5" r="1.5"/><circle cx="16.840426" cy="9.5" r="1.5"/><circle cx="24.840426" cy="9.5" r="1.5"/><circle cx="31.840426" cy="9.5" r="1.5"/><circle cx="39.840426" cy="9.5" r="1.5"/><circle cx="1.840426" cy="17.5" r="1.5"/><circle cx="8.840426" cy="17.5" r="1.5"/><circle cx="16.840426" cy="17.5" r="1.5"/><circle cx="24.840426" cy="17.5" r="1.5"/><circle cx="31.840426" cy="17.5" r="1.5"/><circle cx="39.840426" cy="17.5" r="1.5"/><circle cx="1.840426" cy="25.5" r="1.5"/><circle cx="8.840426" cy="25.5" r="1.5"/><circle cx="16.840426" cy="25.5" r="1.5"/><circle cx="24.840426" cy="25.5" r="1.5"/><circle cx="31.840426" cy="25.5" r="1.5"/><circle cx="39.840426" cy="25.5" r="1.5"/><circle cx="1.840426" cy="32.5" r="1.5"/><circle cx="8.840426" cy="32.5" r="1.5"/><circle cx="16.840426" cy="32.5" r="1.5"/><circle cx="24.840426" cy="32.5" r="1.5"/><circle cx="31.840426" cy="32.5" r="1.5"/><circle cx="39.840426" cy="32.5" r="1.5"/><circle cx="1.840426" cy="40.5" r="1.5"/><circle cx="8.840426" cy="40.5" r="1.5"/><circle cx="16.840426" cy="40.5" r="1.5"/><circle cx="24.840426" cy="40.5" r="1.5"/><circle cx="31.840426" cy="40.5" r="1.5"/><circle cx="39.840426" cy="40.5" r="1.5"/><circle cx="47.840426" cy="47.5" r="1.5"/><circle cx="55.840426" cy="47.5" r="1.5"/><circle cx="62.840426" cy="47.5" r="1.5"/><circle cx="70.840426" cy="47.5" r="1.5"/><circle cx="78.840426" cy="47.5" r="1.5"/><circle cx="85.840426" cy="47.5" r="1.5"/><circle cx="47.840426" cy="55.5" r="1.5"/><circle cx="55.840426" cy="55.5" r="1.5"/><circle cx="62.840426" cy="55.5" r="1.5"/><circle cx="70.840426" cy="55.5" r="1.5"/><circle cx="78.840426" cy="55.5" r="1.5"/><circle cx="85.840426" cy="55.5" r="1.5"/><circle cx="47.840426" cy="62.5" r="1.5"/><circle cx="55.840426" cy="62.5" r="1.5"/><circle cx="62.840426" cy="62.5" r="1.5"/><circle cx="70.840426" cy="62.5" r="1.5"/><circle cx="78.840426" cy="62.5" r="1.5"/><circle cx="85.840426" cy="62.5" r="1.5"/><circle cx="47.840426" cy="70.5" r="1.5"/><circle cx="55.840426" cy="70.5" r="1.5"/><circle cx="62.840426" cy="70.5" r="1.5"/><circle cx="70.840426" cy="70.5" r="1.5"/><circle cx="78.840426" cy="70.5" r="1.5"/><circle cx="85.840426" cy="70.5" r="1.5"/><circle cx="47.840426" cy="78.5" r="1.5"/><circle cx="55.840426" cy="78.5" r="1.5"/><circle cx="62.840426" cy="78.5" r="1.5"/><circle cx="70.840426" cy="78.5" r="1.5"/><circle cx="78.840426" cy="78.5" r="1.5"/><circle cx="85.840426" cy="78.5" r="1.5"/><circle cx="47.840426" cy="85.5" r="1.5"/><circle cx="55.840426" cy="85.5" r="1.5"/><circle cx="62.840426" cy="85.5" r="1.5"/><circle cx="70.840426" cy="85.5" r="1.5"/><circle cx="78.840426" cy="85.5" r="1.5"/><circle cx="85.840426" cy="85.5" r="1.5"/><circle cx="1.840426" cy="47.5" r="1.5"/><circle cx="8.840426" cy="47.5" r="1.5"/><circle cx="16.840426" cy="47.5" r="1.5"/><circle cx="24.840426" cy="47.5" r="1.5"/><circle cx="31.840426" cy="47.5" r="1.5"/><circle cx="39.840426" cy="47.5" r="1.5"/><circle cx="1.840426" cy="55.5" r="1.5"/><circle cx="8.840426" cy="55.5" r="1.5"/><circle cx="16.840426" cy="55.5" r="1.5"/><circle cx="24.840426" cy="55.5" r="1.5"/><circle cx="31.840426" cy="55.5" r="1.5"/><circle cx="39.840426" cy="55.5" r="1.5"/><circle cx="1.840426" cy="62.5" r="1.5"/><circle cx="8.840426" cy="62.5" r="1.5"/><circle cx="16.840426" cy="62.5" r="1.5"/><circle cx="24.840426" cy="62.5" r="1.5"/><circle cx="31.840426" cy="62.5" r="1.5"/><circle cx="39.840426" cy="62.5" r="1.5"/><circle cx="1.840426" cy="70.5" r="1.5"/><circle cx="8.840426" cy="70.5" r="1.5"/><circle cx="16.840426" cy="70.5" r="1.5"/><circle cx="24.840426" cy="70.5" r="1.5"/><circle cx="31.840426" cy="70.5" r="1.5"/><circle cx="39.840426" cy="70.5" r="1.5"/><circle cx="1.840426" cy="78.5" r="1.5"/><circle cx="8.840426" cy="78.5" r="1.5"/><circle cx="16.840426" cy="78.5" r="1.5"/><circle cx="24.840426" cy="78.5" r="1.5"/><circle cx="31.840426" cy="78.5" r="1.5"/><circle cx="39.840426" cy="78.5" r="1.5"/><circle cx="1.840426" cy="85.5" r="1.5"/><circle cx="8.840426" cy="85.5" r="1.5"/><circle cx="16.840426" cy="85.5" r="1.5"/><circle cx="24.840426" cy="85.5" r="1.5"/><circle cx="31.840426" cy="85.5" r="1.5"/><circle cx="39.840426" cy="85.5" r="1.5"/></g></g></g></g><path d="m188 89h196v78h-196c-1.656854 0-3-1.343146-3-3v-72c0-1.6568542 1.343146-3 3-3z" fill="#c4d3f8"/><rect fill="#5586ff" fill-rule="nonzero" height="79" rx="3" width="247" x="168" y="76"/><path d="m74 33h33.494896v18.5695885m0 8.4854668v6.6775333" stroke="#283250" stroke-linecap="square" stroke-width="2" transform="matrix(-1 0 0 1 182 0)"/><path d="m168.719527 354.934277c-2.495529 17.095932 1.047858 61.761031 16.059471 51.049847 15.011613-10.711183 4.887259-69.200298-1.558057-69.200298-6.445317 0-5.723851 51.757429 16.67841 46.422247 10.077947-2.400101 12.248066-12.513672 12.456714-20.864342m2.84027-5.396284c6.851679 16.130884 7.431875-20.517167 7.431875-20.517167s-1.149733-20.061926 13.895655-9.313675c6.195252 4.425816 8.793481 2.140787 10.445791-2.945243m1.083571-4.187306c1.595097-7.365911 2.775525-17.312395 7.9351-23.35946" stroke="#2a3369" stroke-width="2" transform="matrix(.69465837 .7193398 -.7193398 .69465837 318.024659 -44.973954)"/><circle cx="209" cy="115" fill="#fff" fill-rule="nonzero" r="26"/><path d="m5.50000001 13.7500001v9.625h4.12500002v-9.625zm8.24999999 0v9.625h4.1250001v-9.625zm-11 16.5h26.1250001v-4.125h-26.1250001zm19.2500001-16.5v9.625h4.125v-9.625zm-6.1875-12.3750001-13.0625001 6.87500003v2.74999997h26.1250001v-2.74999997z" fill="#5586ff" fill-rule="nonzero" transform="translate(193 97)"/><g transform="matrix(.92718385 -.37460659 .37460659 .92718385 240.855044 248.245409)"><g transform="matrix(.37460659 .92718385 -.92718385 .37460659 34.491432 82.741295)"><path d="m4.05890198.23373545h15.00191762c-.2880524 7.65517241.8680048 15.83144825 3.4681717 24.52882745l-11.4230769 11.6797373-10.57692312-11.6797373c2.81235727-10.5664037 3.98899417-18.74267955 3.5299107-24.52882745z" fill="#ffdd58" fill-rule="nonzero"/><path d="m11.280388 12.817338v22.28125" stroke="#333e7c" stroke-linecap="square" stroke-width="2"/></g><path d="m133.998389-59h15.001918c1.91727 17.8269111 3.071264 37.9510504 3.461981 60.3724179.379145 21.7573271-.696278 73.1335988-3.226268 154.1288151-.130544 4.178795-3.555839 7.498767-7.736672 7.498767-4.175126 0-7.590595-3.32546-7.702051-7.499098-2.173926-81.3893029-3.260889-132.7654644-3.260889-154.1284841 0-22.0118721 1.153994-42.1360114 3.461981-60.3724179z" fill="#353f84" transform="matrix(.37460659 .92718385 .92718385 -.37460659 40.302376 -59.750729)"/><g stroke-linecap="round"><path d="m218.727814 22.0379232c9.091381 20.9937238 10.470739 45.025185 4.138074 72.0943837m-1.572182 6.2049721c-.515554 1.892076-1.370852 4.762477-2.565892 8.611202" stroke="#384487" stroke-width="2"/><path d="m39.610346 84.577913 5.157798 14.51006" stroke="#fff"/></g></g><path d="m0 423.5h6.80497907m7.65682253 0h17.6190931m5.7831577 0 411.2841046-.5" stroke="#384487" stroke-linecap="round" stroke-width="2"/><g transform="matrix(-.9612617 -.27563736 -.27563736 .9612617 140.533939 258.993788)"><path d="m35.3989126 136.177142c1.2161604 7.919903-22.6059906 14.530716-31.56382244 1.188407 9.43347034-12.696393 30.34766194-9.10831 31.56382244-1.188407zm-29.11967669-2.424087c-8.75968357-11.50434-8.00864421-35.4572512.10352413-36.3129175 8.11216836-.8556664 9.13894706 24.1738935-.10352413 36.3129175zm49.77887069-26.194093c3.2252943 7.335389-14.3159349 21.174838-30.1806161 9.314237 6.2579129-11.516926 26.9553219-16.649626 30.1806161-9.314237zm-32.0970234 6.381269c-7.1059661-14.0418886-7.1059661-38.8578715 1.0062022-39.7135378 8.1121684-.8556663 8.2362691 27.5745138-1.0062022 39.7135378zm47.9406929-36.8013961c4.478541 6.3729718-12.0888517 25.0272721-30.1596044 16.0524568 6.2579129-11.5169259 25.6810633-22.4254286 30.1596044-16.0524568zm-31.2111096 13.1597834c-11.2471253-9.4969459-11.9713441-39.5449488-3.8591758-40.4006151 8.1121684-.8556663 8.8434478 22.3746303 3.8591758 40.4006151zm41.2648643-45.6599587c6.9474378 3.9799925-5.1321004 28.2329059-26.615061 21.8964396 6.2579129-11.5169259 19.6676232-25.8764321 26.615061-21.8964396zm-27.8850541 19.4693683c-11.2471252-9.496946-14.9975022-36.8821402-7.5498666-38.8224618s12.5341387 20.796477 7.5498666 38.8224618zm35.9839429-50.6762337c9.1308234 0-3.9717035 32.8394449-25.454664 26.5029785 6.2579129-11.5169258 16.3238406-26.5029785 25.454664-26.5029785zm-27.1124922 26.5029785c-13.6215375-19.4319776-17.0587375-37.88273222-9.6111019-39.82305379 7.4476356-1.94032158 14.5953739 21.79706899 9.6111019 39.82305379z" fill="#384487" fill-rule="nonzero"/><path d="m70 20c-1.9661806 7.1311224-20.3808063 81.939336-70 120" stroke="#384487" stroke-width="2"/></g><g fill-rule="nonzero" transform="translate(31 344)"><use fill="#5586ff" xlink:href="#b"/><path d="m25 22h58c-.6069015-27.08564716.7986367-39.3383656 4.2166146-36.7581555 4.3202262 3.2613119 18.9054904 36.9662652 23.7833854 51.3440556 10.666667 31.4404276 2.738872 50.2034735-23.7833854 56.2891377 3.92253-19.3998747-1.745421-33.0248873-17.0038531-40.8750378-15.258432-7.8501505-32.8766941-13.9091178-52.8547862-18.176902z" fill="#3466df" mask="url(#d)"/><ellipse cx="17" cy="-7.5" fill="#96beff" mask="url(#d)" rx="28" ry="33.5"/></g><path d="m383.179688 236.083984 45.703124-42.083984" stroke="#fff"/><path d="m412 76c1.656854 0 3 1.3431458 3 3v73c0 1.656854-1.343146 3-3 3h-94l44.262-79z" fill="#1845b6" fill-rule="nonzero" opacity=".303874"/><path d="m307 316c-6.139421 4.958211-16.43254 11.590648-20.415502 13.21503 0 3.873328-.528166 8.801651-1.584498 14.78497" stroke="#fff"/><g stroke-linecap="square" stroke-width="2"><path d="m247.369186 97.5h126.261628" stroke="#c4d3f8"/><path d="m247.369186 114.5h126.261628" stroke="#c4d3f8"/><path d="m247.366279 131.5h62.633721" stroke="#ffd2d6"/><path d="m129.5 202.5h198" stroke="#c4d3f8"/><path d="m129.5 235.5h198" stroke="#c4d3f8"/><path d="m129.5 269.5h198" stroke="#c4d3f8"/></g></g></svg>