<?xml version="1.0" encoding="iso-8859-1"?>
<svg xmlns="http://www.w3.org/2000/svg" width="761.158" height="615.438" viewBox="0 0 761.158 615.438"><g transform="translate(-968 -217)"><path d="M611.139,504.619c119.272.581,226.9,8.1,299.365,17.107,73.1,9.174,111.042,19.843,105.778,30.488-5.308,10.748-51.595,20.272-115.238,29.387-64.208,8.95-145.756,17.49-234.412,22.431C494.281,614.583,322.339,600.9,266.915,567.6,211.209,534.5,366.9,502.429,611.139,504.619Z" transform="translate(712.393 224.912)" fill="#004c85" opacity="0.1"/><g transform="translate(968 217)"><g transform="translate(350.259 114.803)"><g transform="translate(0 0)"><path d="M1843.163,670.742c-106.385-14.2-204.5,60.826-218.672,167.2-14.2,106.354,60.809,204.447,167.177,218.659,106.4,14.167,204.5-60.817,218.7-167.188S1949.522,684.919,1843.163,670.742Z" transform="translate(-1622.765 -669.017)" fill="#eff8ff"/></g><g transform="translate(1.973 26.923)"><path d="M2031.862,844.452l-20.12,27.769-35.44,53.044-13.2-37.67-28.816,14.314-13.642-34.269-17.676,17.24-7.39-2.924-23.24-12.764,1.386,26.153,17.8,9.91-43.293,76.1-15.629,7.327-9.254-31.583-2.074-51.211-24.513-4.3-8.145-19.939,18.892-36.443,21.237-2.1,11.685,10.12,31.3-3.393L1840.808,827.1l-27.221-8.458-.339-8.573,28.9-11.979-9.087-19.069,30.529-21.109,27.707,14.045,50.286-8.67s21.139-7.9,44.788-16.548A194.936,194.936,0,0,1,2031.862,844.452Z" transform="translate(-1647.179 -706.456)" fill="#d1dbea"/><path d="M1716.548,702.2l-13.5,17.493-23.686,32.29a3.063,3.063,0,0,0-.306,3.014l10.539,23.164a3.347,3.347,0,0,0,2.369,1.721,3.031,3.031,0,0,0,2.686-1.1l13.711-17.047,19.081,30.668-49.27,33.527-25.25-.946a3.011,3.011,0,0,0-2.786,1.631l-7.364,14.562a3.007,3.007,0,0,0,.079,2.873l13.861,23.432-25.255-15.941-6.407-10.288A194.161,194.161,0,0,1,1716.548,702.2Z" transform="translate(-1625.046 -700.429)" fill="#d1dbea"/><path d="M1686.348,962.579l-12.667-35.484,23.1-37.744,46.075,54.321-56.123,84.844-6.3-21.764L1686.479,964A2.834,2.834,0,0,0,1686.348,962.579Z" transform="translate(-1631.627 -725.752)" fill="#d1dbea"/><path d="M1765.016,760.9l-15.74-48.378c33.578-11.826,55.172-12.612,63.411-12.326L1797.815,740.9Z" transform="translate(-1641.855 -700.152)" fill="#d1dbea"/></g></g><g transform="translate(351.554)"><path d="M1711.238,539.345l5.727-22.757-11.537-5.679a74.4,74.4,0,0,0-.625-10.082l11.338-6.027-6.423-22.574-14.194.945a74.322,74.322,0,0,0-4.873-7.459l7.461-11.931-16.852-16.336-12.6,8.436a74.98,74.98,0,0,0-7.2-3.762l.519-14.855-22.76-5.726-6.8,13.827a74.074,74.074,0,0,0-7.962.206l-7.015-13.2-22.573,6.426.992,14.918a75.031,75.031,0,0,0-7.283,4.29l-12.16-7.6-16.337,16.852,7.742,11.563a75.659,75.659,0,0,0-4.736,8.177l-13.181-.463-5.721,22.761,11.231,5.525a74.368,74.368,0,0,0-.031,10.746l-10.374,5.514,6.422,22.571,11.155-.739a74.648,74.648,0,0,0,5.99,10.332l-5.541,8.859,16.854,16.335,8.493-5.686a75.371,75.371,0,0,0,11.124,6.189l-.339,9.678,22.759,5.718,4.365-8.87a74.784,74.784,0,0,0,12.913-.433l4.5,8.474,22.576-6.421-.683-10.323a74.436,74.436,0,0,0,10.449-6.714l8.69,5.433,16.332-16.847-6.372-9.519a75.185,75.185,0,0,0,5.107-10.163Zm-70.13,9.022a39.424,39.424,0,1,1,27.13-48.709A39.419,39.419,0,0,1,1641.108,548.367Z" transform="translate(-1544.182 -421.539)" fill="#0072bc"/><path d="M1624.93,467.058a56.631,56.631,0,1,0,69.973,38.96A56.632,56.632,0,0,0,1624.93,467.058Zm27.791,97.627A44.876,44.876,0,1,1,1683.6,509.24,44.874,44.874,0,0,1,1652.721,564.685Z" transform="translate(-1554.303 -432.613)" fill="#004c85"/></g><g transform="translate(294.414 123.561)"><path d="M1467.43,664.564a8.256,8.256,0,0,0,8.256,8.255h5.5l19.264,19.261V672.819h63.294a8.254,8.254,0,0,0,8.256-8.255v-68.8a8.255,8.255,0,0,0-8.256-8.257h-88.06a8.257,8.257,0,0,0-8.256,8.257Z" transform="translate(-1467.43 -587.507)" fill="#42a5f5"/><rect width="71.552" height="5.505" transform="translate(16.509 24.769)" fill="#fff"/><rect width="71.552" height="5.498" transform="translate(16.509 38.531)" fill="#fff"/><rect width="71.552" height="5.502" transform="translate(16.509 52.288)" fill="#fff"/></g><g transform="translate(331.033 389.459)"><path d="M1640.119,951.978c-48.017-17.891-97.72-3.477-117.242,48.913s8.631,95.813,56.654,113.7c37.454,13.956,60.246-7.46,99.62-18.174,7.79-2.122,30.277,11.281,30.277,11.281l24.408-65.5s-25.778-4.576-30.275-11.282C1680.788,997.047,1677.581,965.936,1640.119,951.978Z" transform="translate(-1516.618 -944.663)" fill="#fec12f"/><path d="M1709.923,1118.8c-54.408,14.806-85.9,44.4-137.665,25.116a162.121,162.121,0,0,1-30.891-15.319c10.976,13.2,26.3,23.639,44.488,30.414,37.454,13.956,60.246-7.46,99.62-18.174,7.79-2.122,30.277,11.281,30.277,11.281l11.195-30.044C1720.242,1119.455,1713.778,1117.746,1709.923,1118.8Z" transform="translate(-1522.942 -989.077)" fill="#ffab01"/><path d="M1775.038,1141.912l9.028,3.366a28.924,28.924,0,0,0,37.2-17l5.049-13.552a28.926,28.926,0,0,0-17.007-37.2l-9.027-3.363Z" transform="translate(-1582.648 -977.751)" fill="#3d7aa8"/><path d="M1616.742,1081.967l-9.693-15.409,17.422-5.339-9.686-15.422,17.421-5.339-9.678-15.444,17.422-5.339-9.675-15.453,17.436-5.377" transform="translate(-1539.725 -958.507)" fill="none" stroke="#f4da80" stroke-miterlimit="10" stroke-width="9.712"/><path d="M1641.982,1100.341l50.38,1.674,56.849,21.182" transform="translate(-1548.651 -984.441)" fill="none" stroke="#f4da80" stroke-miterlimit="10" stroke-width="9.712"/><path d="M1667.419,1032.075l39.188,31.705,56.85,21.184" transform="translate(-1555.15 -966.998)" fill="none" stroke="#f4da80" stroke-miterlimit="10" stroke-width="9.712"/><rect width="45.192" height="7.51" transform="matrix(0.349, -0.937, 0.937, 0.349, 203.924, 147.456)" fill="#34688f"/><rect width="32.535" height="7.509" transform="matrix(0.349, -0.937, 0.937, 0.349, 216.63, 152.191)" fill="#34688f"/></g><g transform="translate(95.326 186.378)"><g transform="translate(37.026 155.654)"><path d="M1284.563,885.069l29.039,118.052s22.991,11.977,22.723-18.209-6.461-97.413-6.461-97.413Z" transform="translate(-1258.644 -882.009)" fill="#163f59"/><rect width="14.078" height="24.9" transform="translate(61.171 197.992)" fill="#593446"/><path d="M1253.714,1153.95l-1.5,18.741,13.518,1.744,1.128-22.66Z" transform="translate(-1250.378 -950.156)" fill="#593446"/><path d="M1264.965,889.22l.741,126.138s8.932,20.332,14.885,13.562c4.613-5.254,19.491-64.224,24.927-103.778,1.576-11.5,16.06-28.7,15.121-39.074C1320.2,881.214,1264.965,889.22,1264.965,889.22Z" transform="translate(-1253.636 -881.865)" fill="#194866"/><path d="M1332.493,1185.476h10.281v-3.632l4.469,3.632h25.931s-.443-4.927-17.883-5.7c-4.471-.2-7.594-7.263-7.594-7.263s-2.236-2.334-5.593,3.116c-.873,1.412-10.277-1.3-10.277-1.3S1330.933,1181.587,1332.493,1185.476Z" transform="translate(-1270.655 -955.327)" fill="#171c26"/><path d="M1251.8,1185.878l10.283.523.115-3.676,4.356,3.912,25.931,1.353s-.289-5.02-17.705-6.712c-4.465-.439-7.37-7.759-7.37-7.759s-2.159-2.483-5.686,2.867c-.917,1.388-10.247-1.849-10.247-1.849S1250.353,1181.849,1251.8,1185.878Z" transform="translate(-1250.083 -955.565)" fill="#171c26"/><rect width="60.945" height="6.221" transform="translate(11.333 0.88)" fill="#194866"/><rect width="2.235" height="8.337" transform="translate(65.481)" fill="#163f59"/><rect width="2.238" height="8.337" transform="translate(45.233)" fill="#163f59"/><rect width="2.24" height="8.337" transform="translate(19.983)" fill="#163f59"/><path d="M1262.62,1016.695l-12.871,115.216,18.559,1.246s18.716-117.9,16.743-122.36C1279.937,999.238,1263.242,1012.9,1262.62,1016.695Z" transform="translate(-1249.748 -912.972)" fill="#194866"/><path d="M1323.2,1018.886l4.852,116.686,17.024-1.662s4.944-118.259-1.314-122.584S1323.2,1013.485,1323.2,1018.886Z" transform="translate(-1268.517 -913.909)" fill="#163f59"/></g><path d="M1317.37,758.235s-12.421,5.167,2.781,42.527,23.019,32.474,23.019,32.474l10.07-1.375,17.615-24.506-11.207-9.077-2.052.946s-2.795-1.055-3.314-3.646-7.172-13.524-14-35.2C1335.242,744.348,1319.756,757.225,1317.37,758.235Z" transform="translate(-1228.779 -692.454)" fill="#d1c3e9"/><path d="M1379.736,826.951s21.186,11.575,34.063,13.006c8.628.961-9.19,10.579-26.916,12.494s-24.6,1.129-28.427-5.108S1379.736,826.951,1379.736,826.951Z" transform="translate(-1240.397 -711.506)" fill="#46352a"/><path d="M1355.9,817.771l6.064-4.5,2.531-1.654a5.979,5.979,0,0,0,3.02,2.744l-5.16,2.458-5.52,4.062-5.431,7.669Z" transform="translate(-1238.696 -707.587)" fill="#ede7f6"/><path d="M1321.763,864.749l-62.709-.707-6.711-77.71s-6.088-42.666,16.835-45.04c25.221-2.608,52.516,7.376,52.516,7.376S1336.087,755.206,1321.763,864.749Z" transform="translate(-1213.198 -689.508)" fill="#ede7f6"/><path d="M1325.537,679.363s3.318,33.58-4.257,37.525c-.327.165-5.725.4-8.548,2.939-2.656,2.393-2.774,5.09-3.712,6.152a26.713,26.713,0,0,1-2.084,3.211c-2.86,2.5-5.179-.7-6.8-1.431-3.932-1.79-4.969,2.964-5.576,1.291-.413-1.147-4.085-2.881-3.166-4.331,1.964-3.087,6.848-15.7,6.644-18.214-.6-7.36-8.552-20.959,4.3-29.232C1306.093,674.859,1324.626,677.2,1325.537,679.363Z" transform="translate(-1223.326 -673)" fill="#534338"/><path d="M1304.591,746.252l-1.155,8.107-14.926-12.394,1.73-3.029Z" transform="translate(-1222.626 -689.017)" fill="#d1c3e9"/><path d="M1314.811,741.732l2.307,1.952.132,8.6-5.891-5.137Z" transform="translate(-1228.464 -689.731)" fill="#d1c3e9"/><path d="M1324.15,725.938s-1.049-.575-2.933-1.828a18.969,18.969,0,0,0-3.5-1.924c-4.561-1.41-4.433-.965-7.025-2.357a76.8,76.8,0,0,1-8.515-6.175s1.811,3.431,2.508,4.813a9.519,9.519,0,0,0,5.086,4.587c7.758,3.26,7.246,3.841,8.3,3.877A40.749,40.749,0,0,1,1324.15,725.938Z" transform="translate(-1226.119 -682.557)" fill="#46352a"/><path d="M1336.436,698.9c-.03.613,2.14,5.994,2.538,6.99s.961,2.252.777,2.6a10.345,10.345,0,0,1-1.665,1.737c-.455.368-2.194,1.905-2.491-.662S1336.436,698.9,1336.436,698.9Z" transform="translate(-1234.645 -678.786)" fill="#534338"/><path d="M1302.834,674.721c6.237-4.879,18.775-3.55,27.314,4.636,0,0-.351,2-3.314,3.609,0,0-4.972-6.428-13.071-5.522-8.5.955-2.661,5.078-4.643,7.143-1.665,1.741-3.228,3.218-3.228,3.218l-1.288,4.723-2.228.244s-1.187-5.084-2.318-3.586c-1.373,1.82-.771,5.628-.739,6.17s.109,1.444-.157,1.6c-.208.116.39,3.038-.246,7.977-1.046.013-2.337-1.432-2.962-4.566C1294.548,693.317,1295.23,680.681,1302.834,674.721Z" transform="translate(-1224.378 -671.884)" fill="#171c26"/><path d="M1301.041,694.708a3.461,3.461,0,0,0-.308,6.915" transform="translate(-1224.905 -677.715)" fill="#534338"/><path d="M1332.934,711.328a35.69,35.69,0,0,1,4.457-.868c.416.109,1.446.246,1.468.657s-.606,1.45-2.612,2.565C1335.758,713.949,1336.044,712.925,1332.934,711.328Z" transform="translate(-1233.977 -681.738)" fill="#46352a"/><path d="M1230.859,851.56l21.42,55.123s-4.291,1.723-7.068-.214c-7.534-5.258-21.223-20.237-26.31-28.675a147.246,147.246,0,0,1-11.388-24.322Z" transform="translate(-1201.93 -717.794)" fill="#46352a"/><path d="M1428.9,843.522l14.19-8.229,9.143,1.044s1.035,2.143-2.086,3.71a24.916,24.916,0,0,1-7.057,2.041L1437,851.152s5.939,3.515,7.514,2.744,7.749-3.7,7.749-3.7-3.576,7.631-7.392,7.631a73.913,73.913,0,0,1-10.733-.476c-2.862-.478-3.816-8.586-6.676-10.018S1428.9,843.522,1428.9,843.522Z" transform="translate(-1257.879 -713.637)" fill="#46352a"/><g transform="translate(147.32 4.57)"><path d="M1441.61,853.328l4.228,1.482,17.367-5.717-6.792-12.208-2.274,3.6-6.064-.246L1440.45,850.9Z" transform="translate(-1408.769 -718.614)" fill="#e9d6b8"/><g transform="translate(0 22.291)"><path d="M1455.053,764.851l-35.269-32.256s-2.346,2.834-1.461,5.427c2.417,7.015,11.08,21.1,16.579,27.042a125.489,125.489,0,0,0,16.566,14.632Z" transform="translate(-1403.064 -714.258)" fill="#e9d6b8"/><path d="M1417.054,737.868l-4.454-3.787a20.081,20.081,0,0,1-4.039-4.529c-1.834-2.833-.787-5.582,1.586-7.845a8.688,8.688,0,0,1,4.169-2.518s3.833,1.7,3.349,5.13,2.97,11,1.661,11.546A5.948,5.948,0,0,0,1417.054,737.868Z" transform="translate(-1400.382 -710.833)" fill="#e9d6b8"/><path d="M1415.627,717l-4.433-4.778-4.322-4.259-.551,1.248,2.646,3.446,1.413,7.211,1.749-.959Z" transform="translate(-1400.049 -707.965)" fill="#e9d6b8"/><path d="M1405.9,715.795l-4.765-2.491-.866,1.048,4.257,3.309,3.085,4.847,2.976-2.232Z" transform="translate(-1398.501 -709.329)" fill="#e9d6b8"/><path d="M1399.061,717.612l3.922,1.743,2.762.8,1.9,2.536-1.774,2.524-1.964-2.8-4.772-3.174Z" transform="translate(-1398.193 -710.43)" fill="#e9d6b8"/><path d="M1397.9,723.271l7.5,1.919,1.23,1.891-1.116,1.8-3.041-2.1-4.034-2.269Z" transform="translate(-1397.896 -711.876)" fill="#e9d6b8"/><path d="M1423.53,736.429a7.87,7.87,0,0,1-1.892-6.125s1.1-9.159-.243-10.67-2.184-5.421-2.184-5.421-1.149-1.461-1.639,2.245a15.336,15.336,0,0,0,.141,4.586s-2.476,4.995-2.284,6.615c.375,3.341,6.385,9.21,6.385,9.21S1423.84,736.744,1423.53,736.429Z" transform="translate(-1402.373 -709.489)" fill="#e9d6b8"/><path d="M1507.955,761.827l-39.22,7.248-1.5,2.554-2.279-1.865-4.972,15.036,11.294,8.492,53.386-10.869s11.665-5.469,15.624-20.732C1543.161,750.626,1511.208,761.364,1507.955,761.827Z" transform="translate(-1413.76 -720.418)" fill="#b0bfde"/><path d="M1469.242,791.441s-.565-10.811-.66-16.451l-.654,1.119-2.281-1.866-1.674,5.217-1.276,7.751,2.827,1.631.911-2.188Z" transform="translate(-1414.453 -724.9)" fill="#d1dbea"/></g><g transform="translate(46.507)"><path d="M1549.811,734.483c-.107,4.987,2.1,9.558,4.873,10.06q3.981.422,7.962.841c2.825.087,5.938-3.924,6.871-8.824q2.268-12.138,4.544-24.275c.943-4.849.069-14.876-3.863-18.227a10.636,10.636,0,0,0-12.191-1.286c-4.539,2.459-7.491,12.082-7.574,17.018Q1550.126,722.127,1549.811,734.483Z" transform="translate(-1483.218 -681.448)" fill="#e2c59c"/><path d="M1504.567,847.278l-44.2,1.307s32.754,19.721,44.655,9.776S1504.567,847.278,1504.567,847.278Z" transform="translate(-1460.364 -721.27)" fill="#e9d6b8"/><path d="M1547.284,1198.491l.092,4.491,24.954-.53.331-12.073-15.058-.179S1549.643,1197.8,1547.284,1198.491Z" transform="translate(-1482.574 -808.891)" fill="#161711"/><path d="M1554.8,906.519s-11.348,74.226-24.136,106.965c-11.322,29.013-26.038-8.1-26.038-8.1l19.157-124.54,35.85-3.488S1562.117,878.215,1554.8,906.519Z" transform="translate(-1471.673 -728.955)" fill="#163f59"/><path d="M1539.274,884.435l-3.407,47.774,6.3,3.527s5.106,70.751,6.361,74.307c7.168,20.359,24.331,7.689,26.564.8s5.115-57.542,3.543-94.428l-1.574-36.891Z" transform="translate(-1479.656 -729.51)" fill="#194866"/><path d="M1553.713,1027.276s-2.61,12.673-1.692,36.524c.589,15.115,2.914,55.116,6.321,84.86.213,1.822,15.063.126,15.063.126s7.01-96.931,7.411-115.674C1580.938,1027.462,1565.318,1013.678,1553.713,1027.276Z" transform="translate(-1483.734 -765.778)" fill="#194866"/><path d="M1541.756,751.776l23.349-5.222,11.978,13.477s8.883,11.909,9.078,38.663c.194,26.815-8.888,76.492-8.888,76.492l-53.446-17.177S1526.315,763.862,1541.756,751.776Z" transform="translate(-1476.579 -695.534)" fill="#d1dbea"/><path d="M1567.729,763.3s10.319,5.307,5.366,20.642c-8.435,26.139-26.047,47.67-29.364,51.979s-14.892,14.751-22.619,11.3l-7.726-3.45-.525-17.427,5.12-.521,3.039-.57s10.7-16.98,19.641-33.516S1567.729,763.3,1567.729,763.3Z" transform="translate(-1473.778 -699.812)" fill="#b0bfde"/><path d="M1550.961,750.38l4,11.283L1576,750.654l-2.2-6.25Z" transform="translate(-1483.513 -694.984)" fill="#b0bfde"/><path d="M1548.055,748.654l.486,2.522-4.72,6.865.122-5.63Z" transform="translate(-1481.689 -696.07)" fill="#b0bfde"/><path d="M1507.086,1045.118s4.193,1.272,17.469,1.461c13.223.2-14.766,107.178-14.766,107.178l-18.92-6.5,11.246-107.338Z" transform="translate(-1468.158 -770.493)" fill="#163f59"/><path d="M1503.121,1189.111l-1.582,9.361-9.5.2-8.911.189-12.478.265-.07-3.424s14.743-5.453,17.592-11.219S1503.121,1189.111,1503.121,1189.111Z" transform="translate(-1462.973 -806.986)" fill="#161711"/><g transform="translate(54.497)"><path d="M1553.12,683.8l-.54-5.669-2.338.226-6.175.589-3.726.356a7.5,7.5,0,0,0-6.743,8.173l.541,5.659,2.344-.226,6.176-.588,3.724-.355A7.483,7.483,0,0,0,1553.12,683.8Z" transform="translate(-1533.564 -678.05)" fill="#163f59"/><path d="M1569.292,718.054a6.657,6.657,0,0,1-6,7.255l-15.036,1.437a6.66,6.66,0,0,1-7.265-5.992l-2.871-30.082a6.66,6.66,0,0,1,6-7.266l15.039-1.438a6.667,6.667,0,0,1,7.265,6Z" transform="translate(-1534.721 -679.023)" fill="#e9d6b8"/><path d="M1555.188,678.057a7.488,7.488,0,0,1,6.553,2.779l2.559-.248a5.81,5.81,0,0,1,6.33,5.225l1.364,14.271-4.068.39-.555-5.806a4.082,4.082,0,0,0-4.451-3.671l-2.371.225-6.172.589-3.723.357a7.483,7.483,0,0,1-8.166-6.743l-.581-6.1Z" transform="translate(-1535.696 -678.023)" fill="#163f59"/><path d="M1575.6,711.976a3.552,3.552,0,0,1,3.2-3.871l.294-.025a3.549,3.549,0,0,1,3.877,3.192l.41,4.294a3.561,3.561,0,0,1-3.2,3.882l-.293.026a3.564,3.564,0,0,1-3.44-1.8" transform="translate(-1544.302 -685.699)" fill="#e9d6b8"/></g></g></g><g transform="translate(42.457 178.018)"><path d="M1257.042,921.358s4.384-6.533,6.367-7.236,9.36-2.766,9.36-2.766L1274.7,911s1.505,1.915-3.474,3.254-2.237,2.011-2.237,2.011l4.916.5,5.966,1.089,2.719.143a4.864,4.864,0,0,1,1.92.272c1.058.9-.039,1.4-.039,1.4l-10.639.348,9.829,2.364s1.205.515,1.157,1.208c-.041.656-.455.589-.455.589l-11.82-.015,4.919,1.793s1.167.534,1.156,1.219c-.007.744.014.946.014.946l-18.319-3.581Z" transform="translate(-1257.042 -910.999)" fill="#46352a"/><path d="M1279.3,925.7l6.812,2.064a5.675,5.675,0,0,1,2.21.892.961.961,0,0,1,.138,1.366l-10.6-2.1Z" transform="translate(-1262.362 -914.755)" fill="#46352a"/></g><path d="M1252.96,779.576l-22.353,39.9.507,5.936.022,4.856-24.971-1.727-6.151-16.558,35.553-57.946s11.758-16.712,22.79-9.165C1270.354,753.08,1254.777,775.865,1252.96,779.576Z" transform="translate(-1200.014 -690.033)" fill="#d1c3e9"/><path d="M1211.429,840.156s12.788,4.448,19.535,6.536l-1.585.369,1.381,3.288-6.889.109-9.8-1.24-.906-3.842,2.973-.287Z" transform="translate(-1202.931 -714.88)" fill="#ede7f6"/></g><g transform="translate(0 159.174)"><path d="M1190.586,656.851a56.912,56.912,0,0,0-42.442-21.426c-1.051-.047-2.107-.08-3.176-.083h-.014a56.247,56.247,0,0,0-18.257,2.892c-.164.058-.324.121-.49.171.164-.05.317-.111.48-.166l5.634,17.342a40.815,40.815,0,0,1,12.632-2h0a40.819,40.819,0,0,1,33.078,16.863l14.758-10.724Q1191.723,658.242,1190.586,656.851Z" transform="translate(-1085.831 -635.343)" fill="#0072bc"/><path d="M1195.825,678.615a40.667,40.667,0,0,1,7.816,24.033h18.235v.006c0,1.067-.031,2.125-.086,3.177-.005.04-.005.09-.007.136.062-1.1.1-2.207.1-3.325a58.833,58.833,0,0,0-10.854-34.156c-.841-1.187-1.158-1.578-.443-.594Z" transform="translate(-1103.619 -643.517)" fill="#42a5f5"/><path d="M1155.136,728.547a40.891,40.891,0,1,1-36.672-71.97l-5.634-17.342c-.163.055-.316.116-.48.166-.725.246-1.449.5-2.16.765-.2.076-.4.159-.613.241a58.024,58.024,0,0,0-37.553,52.646c-.027.559-.027,1.118-.035,1.68,0,.248-.015.489-.015.741,0,.046.008.092.008.138,0,.793.022,1.581.056,2.368.013.24.013.471.028.712.032.612.085,1.221.14,1.836.033.425.064.854.115,1.278.033.342.086.681.125,1.02.09.707.176,1.415.291,2.111.007.041.017.078.02.118a58.707,58.707,0,0,0,4.284,14.363c.25.557.493,1.117.754,1.668a.332.332,0,0,1,.025.051,59.173,59.173,0,0,0,47.1,33.142c.122.01.237.019.357.031.7.067,1.4.118,2.1.164.36.018.717.044,1.077.06.471.022.944.028,1.424.035.41.01.818.034,1.233.034a58.84,58.84,0,0,0,34.748-11.3Z" transform="translate(-1071.973 -636.337)" fill="#7d55c7"/><path d="M1197.132,760.5a56.759,56.759,0,0,0,21.339-39.642c.007-.108.019-.217.026-.322.073-.809.141-1.624.184-2.446,0-.045,0-.1.007-.136.047-1.053.086-2.107.086-3.177v-.006h-18.236a40.83,40.83,0,0,1-16.859,33.079L1194.4,762.6h0l.014-.01C1195.344,761.912,1196.25,761.21,1197.132,760.5Z" transform="translate(-1100.515 -655.637)" fill="#9676ca"/></g><path d="M1832.85,583.186l-.173-8.248-7.349-.457a22.446,22.446,0,0,0-3.052-7.434l4.777-5.893-5.957-5.713-5.518,4.871a22.309,22.309,0,0,0-7.412-3.094l-.79-7.549-8.256.177-.456,7.345a22.519,22.519,0,0,0-7.433,3.05l-5.9-4.776-5.711,5.959,4.873,5.519a22.308,22.308,0,0,0-3.095,7.412l-7.547.792.175,8.247,7.347.463a22.227,22.227,0,0,0,3.051,7.428l-4.778,5.895,5.959,5.713,5.517-4.87a22.261,22.261,0,0,0,7.418,3.09l.785,7.548,8.256-.171.457-7.349a22.368,22.368,0,0,0,7.431-3.053l5.9,4.779,5.713-5.956-4.874-5.52a22.5,22.5,0,0,0,3.1-7.415Zm-29.267,6.88a10.9,10.9,0,1,1,10.669-11.13A10.9,10.9,0,0,1,1803.582,590.066Z" transform="translate(-1251.313 -454.278)" fill="#0072bc"/><g transform="translate(193.183 117.446)"><path d="M1350.214,595.162a4.315,4.315,0,0,0-3.48,1.78l-6.791-4.244a3.866,3.866,0,0,0,0-2.286l6.789-4.243a4.311,4.311,0,1,0-.846-2.549,4.226,4.226,0,0,0,.049.5l-7.058,4.415a4.328,4.328,0,1,0,0,6.048l7.061,4.416a4.217,4.217,0,0,0-.049.5,4.328,4.328,0,1,0,4.328-4.33Z" transform="translate(-1331.457 -579.293)" fill="#fec12f"/><path d="M1355.908,582.2a2.165,2.165,0,1,1-2.164,2.164A2.167,2.167,0,0,1,1355.908,582.2Z" transform="translate(-1337.152 -580.036)" fill="#fec12f"/><path d="M1336.528,597.185a2.165,2.165,0,1,1,2.165-2.166A2.168,2.168,0,0,1,1336.528,597.185Z" transform="translate(-1332.2 -582.758)" fill="#fec12f"/><path d="M1355.908,607.844a2.164,2.164,0,1,1,2.165-2.163A2.167,2.167,0,0,1,1355.908,607.844Z" transform="translate(-1337.152 -585.482)" fill="#fec12f"/></g><g transform="translate(113.897 106.064)"><rect width="60.241" height="61.748" fill="#0072bc"/><g transform="translate(14.38 16.623)"><path d="M1276.324,594.625h-10.342a22.136,22.136,0,0,0,1.242-3.337,14.4,14.4,0,0,0,0-2.527,2.43,2.43,0,0,0-2.432-2.428h-1.212v3.749s-4.246,4.948-4.246,6.969v11.831a2.428,2.428,0,0,0,2.428,2.428h8.491a3.837,3.837,0,0,0,3.307-2.428l4.308-11.831A1.642,1.642,0,0,0,1276.324,594.625Z" transform="translate(-1248.124 -586.333)" fill="#fff"/><rect width="3.234" height="13.247" transform="translate(9.494 10.212)" fill="#fff"/><rect width="5.766" height="16.685" transform="translate(0 8.292)" fill="#fff"/></g></g><g transform="translate(216.201 59.663)"><path d="M1553.542,463.1a3.132,3.132,0,0,1-3.018,3.238h-5.851v12.142l-14.338-12.142h-29.414a3.136,3.136,0,0,1-3.027-3.238v-36.74a3.136,3.136,0,0,1,3.027-3.236h49.6a3.131,3.131,0,0,1,3.018,3.236Z" transform="translate(-1497.894 -423.122)" fill="#9676ca"/><path d="M1539.54,446.446l-8.116,4.689-8.119,4.684V437.073l8.119,4.687Z" transform="translate(-1501.332 -425.01)" fill="#fff"/></g><g transform="translate(550.314 40.508)"><path d="M2003.209,620.739a3.781,3.781,0,0,0-3.769-3.769h-124.2a3.784,3.784,0,0,0-3.769,3.769v5.888l-5.178,5.885,5.178,6.829v4.944a3.781,3.781,0,0,0,3.769,3.768h124.2a3.779,3.779,0,0,0,3.769-3.768Z" transform="translate(-1866.291 -616.97)" fill="#d1dbea"/><g transform="translate(19.21 15.756)"><line x1="38.904" transform="translate(67.692)" fill="none" stroke="#fff" stroke-miterlimit="10" stroke-width="5.359"/><line x1="47.067" transform="translate(15.953)" fill="none" stroke="#fff" stroke-miterlimit="10" stroke-width="5.359"/><line x1="10.762" fill="none" stroke="#fff" stroke-miterlimit="10" stroke-width="5.359"/></g></g></g></g></svg>