<svg id="Layer_1" data-name="Layer 1" xmlns="http://www.w3.org/2000/svg" viewBox="0 0 336.61 158.57"><defs><style>.cls-1{fill:#3f4a9f;}.cls-2{fill:#e2714d;}.cls-3{fill:#4f345f;}.cls-4{fill:#ecc97d;}.cls-5{fill:#5da8dd;}.cls-6{fill:#fff;}.cls-7{fill:#cce5f7;}.cls-8{fill:#477dbf;}.cls-9{fill:#3b55a5;}.cls-11,.cls-9{opacity:0.29;}.cls-10{fill:#4c3489;opacity:0.12;}.cls-11{fill:#425caa;}.cls-12{fill:#5958a6;opacity:0.59;}</style></defs><title>job-offer</title><path class="cls-1" d="M585.11,275l3.21,3.2v-.73l-2.94,2.94c-.47.47.26,1.2.72.73l2.95-2.94a.54.54,0,0,0,0-.73l-3.21-3.2a.52.52,0,0,0-.73.73Z" transform="translate(-252.58 -218.37)"/><path class="cls-2" d="M530.9,283.81a2.61,2.61,0,1,1-2.61-2.61A2.61,2.61,0,0,1,530.9,283.81Z" transform="translate(-252.58 -218.37)"/><path class="cls-2" d="M389.39,298.3a2.62,2.62,0,1,1-2.61-2.62A2.61,2.61,0,0,1,389.39,298.3Z" transform="translate(-252.58 -218.37)"/><path class="cls-2" d="M429.68,221a2.62,2.62,0,1,1-2.61-2.61A2.61,2.61,0,0,1,429.68,221Z" transform="translate(-252.58 -218.37)"/><path class="cls-3" d="M568.75,259.24a2.62,2.62,0,1,1-2.61-2.62A2.61,2.61,0,0,1,568.75,259.24Z" transform="translate(-252.58 -218.37)"/><path class="cls-3" d="M323.05,293.49a2.62,2.62,0,1,1-2.61-2.62A2.61,2.61,0,0,1,323.05,293.49Z" transform="translate(-252.58 -218.37)"/><path class="cls-4" d="M578,286.42a2.62,2.62,0,1,1-2.62-2.61A2.62,2.62,0,0,1,578,286.42Z" transform="translate(-252.58 -218.37)"/><path class="cls-4" d="M376.15,256.62a2.62,2.62,0,1,1-2.62-2.61A2.62,2.62,0,0,1,376.15,256.62Z" transform="translate(-252.58 -218.37)"/><path class="cls-5" d="M514.32,277.13s.31,5-3.56,5.38-4.16,6.26-4.16,6.26l4.16.77a3.57,3.57,0,0,1,3-4.14c3.56-.76,4-7.6,4-7.6Z" transform="translate(-252.58 -218.37)"/><path class="cls-5" d="M354.27,234.36s.31,5-3.56,5.37-4.17,6.26-4.17,6.26l4.17.78a3.57,3.57,0,0,1,3-4.14c3.57-.77,4-7.6,4-7.6Z" transform="translate(-252.58 -218.37)"/><path class="cls-2" d="M315.91,262.73s4.95-.93,5.78,2.87,6.72,3.36,6.72,3.36l.26-4.23a3.58,3.58,0,0,1-4.48-2.44c-1.2-3.44-8-3-8-3Z" transform="translate(-252.58 -218.37)"/><path class="cls-6" d="M543.62,294.45s5-.3,5.38,3.56,6.26,4.17,6.26,4.17L556,298a3.57,3.57,0,0,1-4.14-3c-.76-3.57-7.6-4-7.6-4Z" transform="translate(-252.58 -218.37)"/><path class="cls-6" d="M353,287.39s5-.31,5.38,3.56,6.26,4.16,6.26,4.16l.77-4.16a3.57,3.57,0,0,1-4.14-3c-.76-3.56-7.6-4-7.6-4Z" transform="translate(-252.58 -218.37)"/><path class="cls-6" d="M483.2,306.92s-11.51-.86-29.39-13.69-28.14-31.8-30-31.42-10.86-2.31-21.8,34.7-3.5,44.15-.33,43.63,23.85-9.64,37.53-10.06,32,4.11,32,4.11Z" transform="translate(-252.58 -218.37)"/><path class="cls-5" d="M509.8,324,507,331.8l-1.23,3.49a9.54,9.54,0,0,1-11.71,5.95L469,336.37l9.33-33.8,25.72,9.28A9.53,9.53,0,0,1,509.8,324Z" transform="translate(-252.58 -218.37)"/><path class="cls-5" d="M497.7,337.59l-5.47,16-4-.51-21.95,23.83-8.92-12.61s13.79-8.46,15.75-14.09-1.35-6.37-1.35-6.37l5.78-8.86Z" transform="translate(-252.58 -218.37)"/><path class="cls-7" d="M403.53,298.56c-5.77,20-6.89,37.28-2.49,38.55s12.65-13.93,18.43-34,6.89-37.28,2.49-38.55S409.31,278.53,403.53,298.56Z" transform="translate(-252.58 -218.37)"/><polygon class="cls-5" points="260.78 115.8 254.01 114.7 256.92 106.5 262.21 108.82 260.78 115.8"/><polygon class="cls-8" points="223.01 119.68 242.03 128.27 243.66 123.48 223.01 119.68"/><polygon class="cls-8" points="256.92 106.5 254.01 114.7 255.4 114.93 257.55 106.78 256.92 106.5"/><path class="cls-9" d="M469.7,333.84l-4.62-1c.15,0,11.22-27.6,11.22-27.6l1.18.38-7.43,27.29" transform="translate(-252.58 -218.37)"/><path class="cls-8" d="M505,327.82c-.06.22-3.47-.57-7.62-1.76s-7.46-2.35-7.4-2.58,3.48.57,7.63,1.77S505.08,327.6,505,327.82Z" transform="translate(-252.58 -218.37)"/><path class="cls-8" d="M506.35,323c-.07.22-3.17-.59-6.93-1.81s-6.75-2.39-6.67-2.61,3.17.59,6.93,1.81S506.42,322.77,506.35,323Z" transform="translate(-252.58 -218.37)"/><path class="cls-8" d="M503.19,333c0,.23-3.26-.08-7-1.28s-6.71-2.38-6.65-2.58,3.16.6,6.89,1.78S503.22,332.72,503.19,333Z" transform="translate(-252.58 -218.37)"/><path class="cls-10" d="M408.47,300.47s-5.92,20,2.13,26c0,0,4.43-9.62,5.68-13.94Z" transform="translate(-252.58 -218.37)"/><path class="cls-5" d="M422.07,293.14s-10.56-4.61-14,9.25,6.63,14.49,6.63,14.49C417.65,308.92,420.5,301.05,422.07,293.14Z" transform="translate(-252.58 -218.37)"/><path class="cls-11" d="M428.76,273.65a12.64,12.64,0,0,1,0,2.56c-.06,1.64-.15,4-.35,7-.21,1.47-.43,3.07-.67,4.78-.12.86-.25,1.75-.38,2.67-.06.46-.13.92-.2,1.39s-.2.94-.3,1.41a120.91,120.91,0,0,1-7.71,24.17c-.2.45-.36.9-.57,1.33l-.64,1.25-1.24,2.4c-.8,1.54-1.55,3-2.23,4.29-1.54,2.51-2.84,4.5-3.74,5.88a11.12,11.12,0,0,1-1.51,2.07,13,13,0,0,1,1.16-2.29l3.46-6,2.09-4.31,1.18-2.39.62-1.25c.19-.43.35-.88.54-1.33a122.66,122.66,0,0,0,4.38-11.81,125.37,125.37,0,0,0,3.27-12.16c.1-.47.23-.93.32-1.4s.15-.92.22-1.37c.15-.91.29-1.79.43-2.64.28-1.69.55-3.28.79-4.73.28-2.87.51-5.22.67-6.92A12,12,0,0,1,428.76,273.65Z" transform="translate(-252.58 -218.37)"/><path class="cls-12" d="M252.58,243.28s2.08,1.18,3.23,1.06l4.42-12.64S254.54,243.86,252.58,243.28Z" transform="translate(-252.58 -218.37)"/></svg>