<svg id="Layer_1" data-name="Layer 1" xmlns="http://www.w3.org/2000/svg" viewBox="0 0 136.69 29.46"><defs><style>.cls-1,.cls-4{font-size:27.23px;font-family:Raleway-SemiBold, Raleway;font-weight:600;}.cls-1{fill:#676d77;}.cls-2,.cls-3,.cls-4{fill:#4062ad;}.cls-3{stroke:#fff;stroke-miterlimit:10;stroke-width:0.25px;}</style></defs><title>logo</title><text class="cls-1" transform="translate(0 23.28)">GETA<tspan class="cls-2" x="79.04" y="0" xml:space="preserve">J   </tspan></text><path class="cls-3" d="M558,227.45a5.84,5.84,0,1,1-5.84,5.84,5.85,5.85,0,0,1,5.84-5.84m0-4a9.84,9.84,0,1,0,9.84,9.84,9.84,9.84,0,0,0-9.84-9.84Z" transform="translate(-453.02 -219.85)"/><path class="cls-2" d="M549.53,247.48h0a2,2,0,0,1-.63-2.75l3.5-5.54,3.38,2.13-3.49,5.54A2,2,0,0,1,549.53,247.48Z" transform="translate(-453.02 -219.85)"/><text class="cls-4" transform="translate(115.86 23.28)">B</text></svg>